<?xml version="1.0" standalone="no"?>
<!DOCTYPE svg PUBLIC "-//W3C//DTD SVG 20010904//EN"
 "http://www.w3.org/TR/2001/REC-SVG-20010904/DTD/svg10.dtd">
<svg version="1.0" xmlns="http://www.w3.org/2000/svg"
 width="246.000000pt" height="250.000000pt" viewBox="0 0 246.000000 250.000000"
 preserveAspectRatio="xMidYMid meet">
<metadata>
Created by potrace 1.15, written by Peter Selinger 2001-2017
</metadata>
<g transform="translate(0.000000,250.000000) scale(0.100000,-0.100000)"
fill="#000000" stroke="none">
<path d="M1106 2390 c-367 -58 -680 -288 -837 -615 -120 -248 -147 -509 -79
-768 100 -381 414 -694 795 -793 133 -34 330 -43 461 -20 746 130 1149 936
803 1606 -143 278 -408 487 -718 567 -108 28 -321 39 -425 23z m284 -50 c128
-16 224 -45 345 -105 275 -136 469 -371 552 -670 33 -122 42 -330 19 -461 -41
-238 -168 -461 -350 -617 -312 -265 -740 -330 -1117 -168 -119 52 -219 120
-320 221 -156 154 -249 326 -293 542 -21 102 -21 314 0 416 49 242 183 462
373 614 225 181 508 262 791 228z"/>
<path d="M907 1803 c-4 -3 -7 -19 -7 -34 0 -34 -47 -86 -86 -94 -16 -4 -35 -8
-41 -11 -10 -2 -13 -61 -13 -246 0 -209 3 -255 20 -327 53 -218 223 -414 427
-490 l60 -22 62 25 c191 77 341 240 408 441 26 78 27 85 27 350 l1 269 -34 7
c-52 11 -84 40 -100 92 l-15 47 -351 0 c-193 0 -355 -3 -358 -7z m691 -76 c21
-47 60 -81 106 -93 l28 -7 -5 -241 c-5 -268 -12 -308 -75 -436 -53 -108 -168
-223 -281 -278 -46 -23 -94 -42 -108 -42 -13 0 -59 17 -101 37 -96 47 -231
176 -279 268 -68 130 -76 175 -81 446 l-4 247 32 7 c40 9 99 67 107 106 l6 29
318 0 318 0 19 -43z"/>
<path d="M967 1678 c-14 -24 -44 -54 -66 -68 l-42 -25 4 -235 c3 -214 5 -241
26 -297 52 -143 161 -267 293 -333 78 -39 80 -39 116 -24 171 70 315 239 357
416 10 45 15 123 15 268 l0 205 -37 20 c-20 11 -52 41 -71 68 l-34 47 -89 0
c-73 0 -91 -3 -96 -16 -9 -25 16 -34 97 -34 74 0 75 0 99 -35 13 -19 39 -44
57 -56 l34 -21 0 -181 c0 -258 -23 -344 -123 -476 -46 -60 -160 -145 -218
-162 -33 -10 -42 -9 -100 22 -86 46 -186 147 -226 230 -52 105 -63 171 -63
376 l0 181 61 61 61 61 71 0 c78 0 103 9 94 34 -5 13 -23 16 -101 16 l-94 0
-25 -42z"/>
<path d="M1172 1439 c-109 -55 -150 -174 -97 -286 69 -150 277 -161 369 -20
49 77 45 164 -13 244 -55 76 -175 105 -259 62z m164 -38 c167 -76 112 -324
-71 -324 -148 0 -225 161 -133 278 26 33 91 65 133 65 17 0 48 -9 71 -19z"/>
</g>
</svg>
