<?xml version="1.0" standalone="no"?>
<!DOCTYPE svg PUBLIC "-//W3C//DTD SVG 20010904//EN"
 "http://www.w3.org/TR/2001/REC-SVG-20010904/DTD/svg10.dtd">
<svg version="1.0" xmlns="http://www.w3.org/2000/svg"
 width="246.000000pt" height="250.000000pt" viewBox="0 0 246.000000 250.000000"
 preserveAspectRatio="xMidYMid meet">
<metadata>
Created by potrace 1.15, written by Peter Selinger 2001-2017
</metadata>
<g transform="translate(0.000000,250.000000) scale(0.100000,-0.100000)"
fill="#000000" stroke="none">
<path d="M1125 2379 c-169 -21 -382 -107 -516 -208 -82 -63 -202 -188 -254
-266 -90 -136 -153 -299 -175 -454 -17 -116 -8 -312 21 -421 130 -505 595
-851 1109 -827 484 24 882 349 1012 827 20 74 23 108 23 265 0 165 -3 188 -28
278 -54 196 -149 358 -294 498 -101 99 -180 154 -296 209 -188 90 -399 124
-602 99z m340 -65 c304 -58 585 -271 724 -550 84 -169 116 -320 108 -514 -13
-321 -156 -594 -417 -792 -80 -61 -241 -140 -339 -167 -298 -82 -621 -27 -875
149 -85 59 -214 189 -267 270 -312 474 -206 1087 245 1422 232 173 525 238
821 182z"/>
<path d="M1595 1898 c-2 -7 -3 -22 -2 -32 2 -15 -93 -81 -425 -300 -444 -292
-467 -310 -422 -343 10 -7 25 -11 32 -8 8 3 205 131 438 285 233 154 429 280
434 280 6 0 10 -5 10 -11 0 -6 9 -9 21 -7 28 4 75 114 58 135 -15 17 -138 18
-144 1z m115 -28 c0 -8 -20 -58 -27 -69 -1 -2 -9 2 -18 9 -13 11 -26 6 -83
-32 -563 -374 -804 -529 -814 -526 -7 3 95 76 227 163 132 87 331 218 443 292
173 114 202 137 197 153 -6 18 -2 20 34 20 23 0 41 -4 41 -10z"/>
<path d="M1582 1618 c-9 -9 -12 -116 -12 -420 0 -401 0 -408 -20 -408 -20 0
-20 7 -20 303 0 344 -1 351 -68 345 -48 -4 -55 -28 -8 -28 l36 0 0 -310 0
-310 -100 0 -100 0 2 308 3 307 33 5 c45 7 45 24 1 28 -70 6 -69 9 -69 -339 0
-302 0 -309 -20 -309 -19 0 -20 7 -20 206 0 122 -4 213 -10 225 -10 17 -22 19
-123 19 -75 0 -117 -4 -125 -12 -9 -9 -12 -73 -12 -225 0 -206 -1 -213 -20
-213 -19 0 -20 7 -20 114 0 148 2 146 -134 146 -136 0 -136 0 -136 -148 0 -92
-3 -113 -16 -120 -52 -29 3 -32 611 -32 612 0 647 2 616 33 -7 7 -11 71 -11
188 0 138 -3 179 -14 188 -22 19 -26 -8 -26 -195 l0 -174 -100 0 -100 0 0 405
0 405 100 0 100 0 2 -187 c3 -159 5 -188 18 -188 13 0 15 28 15 193 0 160 -3
194 -15 202 -23 14 -223 13 -238 -2z m-394 -620 l2 -208 -105 0 -105 0 0 210
0 211 103 -3 102 -3 3 -207z m-310 -95 l3 -113 -106 0 -105 0 0 108 c0 60 3
112 7 116 4 4 50 5 103 4 l95 -3 3 -112z"/>
</g>
</svg>
